<svg id="Слой_1" data-name="Слой 1" xmlns="http://www.w3.org/2000/svg" viewBox="0 0 225.17 52.05"><defs><style>.cls-1{fill:#fff;}.cls-2{fill:#020202;}.cls-3{fill:#d10900;}</style></defs><path class="cls-1" d="M21.46,31.31c-3.71.41,20.11-9.8,46.33-12.38,5.12-.49,9.92-1,16-1.28,14.06-.56,18.13-.51,38.31-.51,13.35,0,20.48-.15,28.88-.7,14.37-.92,23.31-1.89,23.38-1.55s-14.77,3.88-33.18,5.88c-10.94,1.18-14.59.92-39.24,2-18.25.81-27.37,1.2-34.47,1.83C37.07,27.3,22.66,31.16,21.46,31.31Z" transform="translate(-7.12 -0.7)"/><path class="cls-1" d="M89.65,15.83c-.76-.06,8-3.36,14.44-5.77,8.6-3.22,13.07-4.61,16.91-5.91A69.72,69.72,0,0,1,134.15,1.1c16.45-1.78,33.83,2.61,58,8.53,6.12,1.5,11.9,2.85,17.74,4.82,2.86,1,4.51.76,7,.82,7.71.22,13.75-2.75,14.44-3.3s-2.64,4.19-6.19,6.06c-4.9,2.57-10.26,1.19-12.24.69-12-3-24.22-4.88-36.17-8-11-2.84-18.3-4.75-28.33-4.95-11.65-.23-21.13,1.93-38.49,5.91C96.7,14.73,90.41,15.9,89.65,15.83Z" transform="translate(-7.12 -0.7)"/><path class="cls-1" d="M221.93,18.72c-.38.61-10.44,3.58-17.44,2.29-3.69-.67-5.62-1.33-6.09-1.42-6.69-1.13-12.11,1.11-23.19,2.84-12.1,1.9-26.31.12-26.31-.23S158,21.56,169.66,20c8.47-1.17,10.54-2.15,20.08-3.17,5.13-.54,10.48,1.15,17.19,1.65C213.4,18.93,222.28,18.14,221.93,18.72Z" transform="translate(-7.12 -0.7)"/><path class="cls-1" d="M132.42,14.36c0-.47,6.06.73,11.3-2.12,3-1.65,3.85-6.5,4.05-5.68s.87,3.79-.5,5.84c-1.22,1.8-3.3,2.2-5.61,2.59C136.69,15.83,132.39,14.74,132.42,14.36Z" transform="translate(-7.12 -0.7)"/><path class="cls-1" d="M23.52,35.34C26,33.82,44.92,30,47.3,28.82c.05,0,.25-.13.28-.08.2.23-3.76,4.47-6.88,5.49C31.08,37.4,22.38,36,23.52,35.34Z" transform="translate(-7.12 -0.7)"/><path class="cls-1" d="M15.09,35.88c.4-.31,4.85,1.27,8.12,3.23a6.32,6.32,0,0,1,2.61,2.28c.85,1.19.77,5.45-1.24,7.84C20.21,54.41,7.2,52.59,7.12,51.7s12.76-1.93,14.21-6C22.83,41.46,14.68,36.21,15.09,35.88Z" transform="translate(-7.12 -0.7)"/><path class="cls-2" d="M41.52,41.62" transform="translate(-7.12 -0.7)"/><path class="cls-1" d="M229.77,20.3c.36-.36-12.79,2.84-12.92,6.39a2.15,2.15,0,0,0,.13.82c1.62,4.69,7.23,7.35,7.56,10.45s-4.9,6.17-6.88,7.29c-6.27,3.57-12.28,3.86-17.8,4.06-19.7.71-26.67.88-26.68,1.11s8.89.39,25.09,1.23c8.83.47,14.24.85,21-1.58a22,22,0,0,0,10.32-7.29c1.08-1.45,3.54-4.74,2.47-7.23-.71-1.63-2.29-1.48-6.19-3.93-3-1.84-5.44-3.4-5.43-5.23C220.43,23.52,229.09,21,229.77,20.3Z" transform="translate(-7.12 -0.7)"/><path class="cls-2" d="M240,24" transform="translate(-7.12 -0.7)"/><path class="cls-3" d="M62.07,30.6h-7V28.09H72V30.6h-7V51h-3Z" transform="translate(-7.12 -0.7)"/><path class="cls-3" d="M79.67,51,73.86,28.09H77L79.7,39.66c.68,2.85,1.29,5.71,1.7,7.9h.07c.38-2.27,1.09-5,1.86-7.93l3.06-11.54h3.08l2.79,11.6c.64,2.72,1.25,5.43,1.6,7.84h.07c.48-2.51,1.12-5.07,1.83-7.9l3-11.54h3L95.31,51H92.23L89.34,39.05a71,71,0,0,1-1.5-7.48h-.07A74.53,74.53,0,0,1,86,39.05L82.76,51Z" transform="translate(-7.12 -0.7)"/><path class="cls-3" d="M107.61,28.09V51h-3V28.09Z" transform="translate(-7.12 -0.7)"/><path class="cls-3" d="M112.75,51V28.09H116l7.33,11.57a65.77,65.77,0,0,1,4.11,7.42l.06,0c-.28-3-.35-5.84-.35-9.4V28.08h2.79V50.94h-3l-7.26-11.59a74.16,74.16,0,0,1-4.28-7.64l-.1,0c.17,2.89.24,5.63.24,9.44v9.76h-2.78Z" transform="translate(-7.12 -0.7)"/><path class="cls-1" d="M143.62,43.37a1,1,0,0,1,.07.27.2.2,0,0,1-.05.14s-.1,0-.2.07a1.89,1.89,0,0,1-.36,0,1.78,1.78,0,0,1-.36,0,.7.7,0,0,1-.2,0,.2.2,0,0,1-.1-.07l-.07-.11-.82-2.33h-4l-.78,2.29a.27.27,0,0,1-.06.12.39.39,0,0,1-.1.08l-.2.05a1.57,1.57,0,0,1-.33,0,1.73,1.73,0,0,1-.35,0,.42.42,0,0,1-.19-.07.16.16,0,0,1-.05-.14.66.66,0,0,1,.06-.27l3.2-8.84a.44.44,0,0,1,.22-.22,1.17,1.17,0,0,1,.23,0l.36,0a2.49,2.49,0,0,1,.4,0,1.56,1.56,0,0,1,.25,0,.28.28,0,0,1,.14.09.3.3,0,0,1,.09.13Zm-4.1-7.8h0l-1.65,4.75h3.31Z" transform="translate(-7.12 -0.7)"/><path class="cls-1" d="M151.48,41.09a2.45,2.45,0,0,1-.12.83,2.22,2.22,0,0,1-.31.68,2.05,2.05,0,0,1-.5.52,2.65,2.65,0,0,1-.66.38,3.64,3.64,0,0,1-.77.23,5.31,5.31,0,0,1-1,.09h-2.49a.48.48,0,0,1-.31-.12.47.47,0,0,1-.15-.39v-8.5a.45.45,0,0,1,.15-.4.49.49,0,0,1,.31-.11h2.16a5,5,0,0,1,1.4.16,2.62,2.62,0,0,1,.91.48,1.82,1.82,0,0,1,.55.76,2.94,2.94,0,0,1,.18,1,2.69,2.69,0,0,1-.08.65,2.56,2.56,0,0,1-.24.57,1.43,1.43,0,0,1-.39.46,2.85,2.85,0,0,1-.55.35,2.07,2.07,0,0,1,.73.27,2,2,0,0,1,.59.49,2.22,2.22,0,0,1,.4.71A2.33,2.33,0,0,1,151.48,41.09Zm-1.9-4.27a1.81,1.81,0,0,0-.1-.63,1.2,1.2,0,0,0-.29-.47,1.17,1.17,0,0,0-.55-.3,2.92,2.92,0,0,0-.87-.1h-1.31V38.4h1.44a1.94,1.94,0,0,0,.79-.13,1.48,1.48,0,0,0,.5-.34,1.4,1.4,0,0,0,.29-.52A1.63,1.63,0,0,0,149.58,36.82Zm.58,4.34a2.08,2.08,0,0,0-.13-.74,1.37,1.37,0,0,0-.4-.55,1.71,1.71,0,0,0-.66-.33,3.47,3.47,0,0,0-1-.11h-1.52v3.35h1.83a2.86,2.86,0,0,0,.76-.1,1.29,1.29,0,0,0,.56-.32,1.09,1.09,0,0,0,.38-.51A1.29,1.29,0,0,0,150.16,41.16Z" transform="translate(-7.12 -0.7)"/><path class="cls-1" d="M159.07,34.84a.94.94,0,0,1,0,.25.5.5,0,0,1-.05.16s-.05.07-.08.1a.11.11,0,0,1-.1,0h-2.69v8.25a.16.16,0,0,1,0,.09s0,.05-.1.07l-.2.05a1.32,1.32,0,0,1-.3,0,1.28,1.28,0,0,1-.29,0l-.2-.05a.29.29,0,0,1-.1-.07s0-.06,0-.09V35.39H152.2a.13.13,0,0,1-.09,0,.15.15,0,0,1-.09-.1,1.42,1.42,0,0,0-.05-.16,3.13,3.13,0,0,1,0-.5,1.67,1.67,0,0,0,.05-.18.18.18,0,0,1,.09-.1.32.32,0,0,1,.09,0h6.62l.1,0a.16.16,0,0,1,.08.1.65.65,0,0,1,.05.18A1,1,0,0,1,159.07,34.84Z" transform="translate(-7.12 -0.7)"/><path class="cls-1" d="M168.08,39A7.37,7.37,0,0,1,167.8,41a4.3,4.3,0,0,1-.81,1.58,3.59,3.59,0,0,1-1.35,1,5,5,0,0,1-1.92.35,4.8,4.8,0,0,1-1.86-.32,3.45,3.45,0,0,1-1.31-.92,4,4,0,0,1-.76-1.52,8.2,8.2,0,0,1-.24-2.08,6.69,6.69,0,0,1,.28-2.05,4.3,4.3,0,0,1,.82-1.56,3.69,3.69,0,0,1,1.37-1,4.88,4.88,0,0,1,1.92-.35,4.94,4.94,0,0,1,1.83.31,3.49,3.49,0,0,1,1.3.93,4,4,0,0,1,.78,1.5A7.72,7.72,0,0,1,168.08,39Zm-1.36.08a7.8,7.8,0,0,0-.14-1.5,3.82,3.82,0,0,0-.48-1.2,2.29,2.29,0,0,0-.89-.8,3,3,0,0,0-1.39-.28,2.75,2.75,0,0,0-1.39.32,2.54,2.54,0,0,0-.9.82,3.47,3.47,0,0,0-.5,1.21,6.79,6.79,0,0,0-.15,1.45A8.35,8.35,0,0,0,161,40.6a3.24,3.24,0,0,0,.47,1.22,2.12,2.12,0,0,0,.89.79,3.22,3.22,0,0,0,1.39.28,2.87,2.87,0,0,0,1.4-.31,2.37,2.37,0,0,0,.91-.84,3.6,3.6,0,0,0,.5-1.22A8.1,8.1,0,0,0,166.72,39Z" transform="translate(-7.12 -0.7)"/><path class="cls-1" d="M176.43,42.46v.2a.27.27,0,0,1,0,.15.43.43,0,0,1,0,.12.45.45,0,0,1-.1.13,1.25,1.25,0,0,1-.31.23,4.4,4.4,0,0,1-.58.3,4.49,4.49,0,0,1-.8.24,4.37,4.37,0,0,1-1,.1,4.18,4.18,0,0,1-1.67-.31,3.44,3.44,0,0,1-1.27-.91,3.91,3.91,0,0,1-.81-1.48,7.06,7.06,0,0,1-.28-2,6.8,6.8,0,0,1,.3-2.11,4.56,4.56,0,0,1,.85-1.57,3.49,3.49,0,0,1,1.32-1,4.34,4.34,0,0,1,1.7-.35,4.28,4.28,0,0,1,.81.08,4.84,4.84,0,0,1,.73.2,3.56,3.56,0,0,1,.59.28,3.17,3.17,0,0,1,.37.25,1.2,1.2,0,0,1,.13.15l0,.11a1.55,1.55,0,0,0,0,.17c0,.06,0,.13,0,.23a.94.94,0,0,1,0,.25c0,.06,0,.13,0,.16a.29.29,0,0,1-.07.1s-.06,0-.09,0a.57.57,0,0,1-.29-.14c-.13-.1-.28-.2-.47-.32a4.84,4.84,0,0,0-.71-.31,3,3,0,0,0-1-.15,2.52,2.52,0,0,0-1.15.25,2.36,2.36,0,0,0-.9.74,4.18,4.18,0,0,0-.57,1.2,5.85,5.85,0,0,0-.2,1.62,5.51,5.51,0,0,0,.2,1.6,3.14,3.14,0,0,0,.56,1.16,2.55,2.55,0,0,0,.89.71,2.92,2.92,0,0,0,1.2.23,3.6,3.6,0,0,0,1-.13,3.55,3.55,0,0,0,.73-.32A3.85,3.85,0,0,0,176,42a.57.57,0,0,1,.3-.13h.08a.35.35,0,0,1,.07.09.39.39,0,0,1,0,.18A2.71,2.71,0,0,0,176.43,42.46Z" transform="translate(-7.12 -0.7)"/><path class="cls-1" d="M183.41,43.29a.86.86,0,0,1,0,.23,1,1,0,0,1,0,.16.17.17,0,0,1-.08.1.25.25,0,0,1-.12,0h-4.57a.48.48,0,0,1-.31-.12.47.47,0,0,1-.15-.39v-8.5a.45.45,0,0,1,.15-.4.49.49,0,0,1,.31-.11h4.52a.17.17,0,0,1,.1,0,.16.16,0,0,1,.08.1.75.75,0,0,1,0,.16.94.94,0,0,1,0,.25.82.82,0,0,1,0,.23.69.69,0,0,1,0,.17s-.05.06-.08.1a.29.29,0,0,1-.1,0h-3.73v3h3.2a.17.17,0,0,1,.1,0,.15.15,0,0,1,.09.1l.05.16a1.85,1.85,0,0,1,0,.25,1.69,1.69,0,0,1,0,.23l-.05.15a.18.18,0,0,1-.09.08.17.17,0,0,1-.1,0h-3.2v3.4h3.78a.21.21,0,0,1,.1,0,.14.14,0,0,1,.08.1.22.22,0,0,1,.05.16C183.37,43.16,183.41,43.19,183.41,43.29Z" transform="translate(-7.12 -0.7)"/><path class="cls-1" d="M191.31,37.08a3.49,3.49,0,0,1-.23,1.29,2.83,2.83,0,0,1-.68,1,3.21,3.21,0,0,1-1.07.62,4.56,4.56,0,0,1-1.52.22h-1.09v3.43a.22.22,0,0,1,0,.1.14.14,0,0,1-.1.06.83.83,0,0,1-.2,0,1.37,1.37,0,0,1-.31,0,1.24,1.24,0,0,1-.3,0,.83.83,0,0,1-.2,0c-.05,0-.08-.05-.1-.06a.29.29,0,0,1,0-.1V34.84a.49.49,0,0,1,.15-.41.54.54,0,0,1,.35-.13h2a4,4,0,0,1,.6,0,5.75,5.75,0,0,1,.67.11,3.34,3.34,0,0,1,.8.32,2.2,2.2,0,0,1,.67.58,2.51,2.51,0,0,1,.43.77A2.91,2.91,0,0,1,191.31,37.08Zm-1.34.1a1.93,1.93,0,0,0-.21-1,1.47,1.47,0,0,0-.55-.58,1.65,1.65,0,0,0-.66-.24,3.74,3.74,0,0,0-.66,0h-1.17v3.81h1.14a2.73,2.73,0,0,0,1-.15,1.76,1.76,0,0,0,.64-.41,2.05,2.05,0,0,0,.4-.63A2.41,2.41,0,0,0,190,37.18Z" transform="translate(-7.12 -0.7)"/><path class="cls-1" d="M199.53,41.09a2.73,2.73,0,0,1-.12.83,2.82,2.82,0,0,1-.31.68,2.24,2.24,0,0,1-.5.52,2.84,2.84,0,0,1-.66.38,3.82,3.82,0,0,1-.77.23,5.5,5.5,0,0,1-1,.09h-2.49a.49.49,0,0,1-.32-.12.5.5,0,0,1-.14-.39v-8.5a.48.48,0,0,1,.14-.4.52.52,0,0,1,.32-.11h2.16a5,5,0,0,1,1.4.16,2.62,2.62,0,0,1,.91.48,1.72,1.72,0,0,1,.54.76,2.73,2.73,0,0,1,.19,1,2.68,2.68,0,0,1-.09.65,2.52,2.52,0,0,1-.23.57,1.57,1.57,0,0,1-.39.46,2.85,2.85,0,0,1-.55.35,2.07,2.07,0,0,1,.73.27,2,2,0,0,1,.59.49,2.22,2.22,0,0,1,.4.71A2.33,2.33,0,0,1,199.53,41.09Zm-1.92-4.27a1.81,1.81,0,0,0-.1-.63,1.2,1.2,0,0,0-.29-.47,1.17,1.17,0,0,0-.55-.3,2.92,2.92,0,0,0-.87-.1h-1.31V38.4h1.44a1.94,1.94,0,0,0,.79-.13,1.48,1.48,0,0,0,.5-.34,1.4,1.4,0,0,0,.29-.52A1.63,1.63,0,0,0,197.61,36.82Zm.58,4.34a2.08,2.08,0,0,0-.13-.74,1.37,1.37,0,0,0-.4-.55,1.64,1.64,0,0,0-.66-.33,3.47,3.47,0,0,0-1-.11h-1.52v3.35h1.84a2.78,2.78,0,0,0,.75-.1,1.39,1.39,0,0,0,.57-.32,1.15,1.15,0,0,0,.37-.51A1.29,1.29,0,0,0,198.19,41.16Z" transform="translate(-7.12 -0.7)"/><path class="cls-1" d="M202.71,43.62a.54.54,0,0,1,0,.1.14.14,0,0,1-.1.06.83.83,0,0,1-.2,0,1.37,1.37,0,0,1-.31,0,1.32,1.32,0,0,1-.3,0,.83.83,0,0,1-.2,0s-.08-.05-.1-.06a.29.29,0,0,1,0-.1V34.48a.29.29,0,0,1,0-.1.27.27,0,0,1,.12-.07l.2-.05h.61l.19.05s.09,0,.1.07a.18.18,0,0,1,0,.1v9.14Z" transform="translate(-7.12 -0.7)"/><path class="cls-1" d="M211.6,42.46v.2a.28.28,0,0,1,0,.15l0,.12a.76.76,0,0,1-.1.13,1.86,1.86,0,0,1-.31.23,5.14,5.14,0,0,1-.58.3,4.37,4.37,0,0,1-.81.24,4.25,4.25,0,0,1-1,.1,4.16,4.16,0,0,1-1.66-.31,3.44,3.44,0,0,1-1.27-.91,3.91,3.91,0,0,1-.81-1.48,7.06,7.06,0,0,1-.28-2,7.13,7.13,0,0,1,.29-2.11,4.75,4.75,0,0,1,.86-1.57,3.41,3.41,0,0,1,1.32-1,4.25,4.25,0,0,1,2.51-.27,5.59,5.59,0,0,1,.73.2,3.56,3.56,0,0,1,.59.28,2.23,2.23,0,0,1,.36.25c.07.07.12.11.13.15a.28.28,0,0,1,.05.11s0,.1,0,.17,0,.13,0,.23a1.85,1.85,0,0,1,0,.25c0,.06,0,.13-.05.16a.29.29,0,0,1-.07.1s-.06,0-.1,0a.59.59,0,0,1-.28-.14,5,5,0,0,0-.48-.32,4.41,4.41,0,0,0-.71-.31,3,3,0,0,0-1-.15,2.6,2.6,0,0,0-1.16.25,2.41,2.41,0,0,0-.89.74,3.94,3.94,0,0,0-.58,1.2,6.26,6.26,0,0,0-.19,1.62,5.9,5.9,0,0,0,.19,1.6,3.31,3.31,0,0,0,.57,1.16,2.46,2.46,0,0,0,.89.71,2.92,2.92,0,0,0,1.2.23,3.6,3.6,0,0,0,1-.13,3.55,3.55,0,0,0,.73-.32,4.72,4.72,0,0,0,.49-.31.51.51,0,0,1,.3-.13h.08a.35.35,0,0,1,.07.09.59.59,0,0,1,0,.18A1.37,1.37,0,0,0,211.6,42.46Z" transform="translate(-7.12 -0.7)"/></svg>